<?xml version="1.0" standalone="no"?>
<!DOCTYPE svg PUBLIC "-//W3C//DTD SVG 20010904//EN"
 "http://www.w3.org/TR/2001/REC-SVG-20010904/DTD/svg10.dtd">
<svg version="1.0" xmlns="http://www.w3.org/2000/svg"
 width="322.000000pt" height="322.000000pt" viewBox="0 0 322.000000 322.000000"
 preserveAspectRatio="xMidYMid meet">
<metadata>
Created by potrace 1.14, written by Peter Selinger 2001-2017
</metadata>
<g transform="translate(0.000000,322.000000) scale(0.100000,-0.100000)"
fill="#000000" stroke="none">
<path d="M1552 3119 c-26 -6 -56 -24 -77 -45 -32 -32 -41 -35 -127 -44 -261
-27 -451 -128 -565 -298 -69 -105 -97 -224 -117 -502 -9 -125 -19 -194 -29
-214 -27 -51 -50 -152 -43 -190 10 -55 71 -83 134 -62 19 6 22 4 22 -17 0 -23
-3 -25 -38 -20 -92 12 -142 -56 -142 -192 0 -142 34 -240 124 -363 29 -38 46
-73 46 -90 0 -58 56 -95 85 -55 11 15 14 10 23 -34 30 -136 111 -275 217 -370
l64 -57 -69 -33 c-52 -23 -75 -41 -91 -67 -18 -30 -28 -36 -77 -46 -113 -21
-192 -54 -192 -80 0 -10 150 -87 265 -137 228 -98 508 -141 801 -122 238 16
428 69 657 184 78 38 141 75 141 80 0 20 -85 56 -166 70 -46 8 -85 20 -87 26
-10 30 -68 80 -117 100 l-54 23 64 58 c108 98 188 235 218 371 8 39 12 47 20
34 24 -43 88 -3 88 55 0 17 17 52 46 90 89 121 124 227 124 371 -1 131 -53
196 -147 183 -38 -5 -43 -3 -43 14 0 25 13 32 43 21 32 -13 95 2 121 28 33 33
28 119 -12 203 -19 38 -32 82 -32 103 0 79 -33 324 -56 415 -51 206 -170 373
-318 445 -84 42 -219 72 -363 81 -83 6 -104 10 -108 24 -14 46 -146 79 -233
59z m318 -1093 c216 -29 414 -99 557 -197 39 -27 41 -31 36 -67 -3 -20 -7 -38
-8 -40 -1 -1 -51 3 -111 8 -60 6 -137 13 -172 16 -61 5 -62 6 -47 27 11 15 12
24 3 34 -6 8 6 6 33 -6 27 -13 48 -16 53 -11 11 11 12 10 -38 44 -21 14 -32
26 -24 26 12 0 38 38 38 56 0 3 -15 4 -32 2 -29 -3 -33 -7 -33 -30 1 -24 -2
-27 -25 -22 -14 3 -34 7 -46 9 -59 12 -224 -40 -224 -70 0 -25 19 -26 77 -1
56 23 91 29 162 27 32 -1 33 -2 18 -19 -15 -16 -15 -20 -2 -40 15 -20 14 -21
-17 -26 -18 -3 -80 -7 -138 -10 -121 -7 -166 -17 -206 -49 -41 -31 -143 -31
-178 2 -33 31 -71 39 -241 50 -140 10 -318 3 -444 -15 -49 -8 -61 2 -61 53 0
26 8 37 49 67 138 102 311 155 616 190 80 9 311 4 405 -8z m290 -130 c0 -3 -4
-8 -10 -11 -5 -3 -10 -1 -10 4 0 6 5 11 10 11 6 0 10 -2 10 -4z m-50 -106 c0
-5 -2 -10 -4 -10 -3 0 -8 5 -11 10 -3 6 -1 10 4 10 6 0 11 -4 11 -10z m-1378
-122 c9 -7 18 -32 20 -55 l3 -41 -38 34 c-21 19 -42 32 -47 29 -5 -3 5 -18 22
-34 l31 -28 -16 -60 c-10 -35 -15 -73 -11 -92 11 -52 19 -43 19 20 1 41 6 64
17 76 16 15 18 15 27 -8 10 -26 34 -259 28 -266 -3 -2 -19 9 -38 24 l-33 28
18 -28 c10 -15 29 -30 41 -33 28 -7 42 -44 16 -44 -9 0 -21 -4 -27 -10 -14
-14 -99 117 -120 183 -19 63 -29 190 -20 241 12 64 67 96 108 64z m403 -3
c-43 -15 -79 -52 -95 -98 -8 -24 -5 -32 26 -67 51 -57 106 -80 189 -80 78 0
134 22 179 69 33 34 31 56 -9 116 -17 24 -21 36 -11 32 8 -3 17 -1 19 6 3 8
11 6 26 -7 45 -41 16 -203 -44 -237 -94 -55 -406 -50 -475 7 -33 28 -54 102
-48 173 5 72 61 97 228 99 l55 1 -40 -14z m1205 -13 c35 -17 35 -18 38 -87 4
-106 -12 -144 -73 -175 -47 -23 -60 -25 -200 -25 -172 0 -233 13 -269 56 -24
29 -46 104 -46 159 0 31 40 84 48 62 2 -6 11 -8 20 -5 11 5 7 -5 -11 -29 -15
-19 -30 -49 -33 -66 -5 -26 -1 -35 22 -56 53 -47 105 -66 177 -66 82 0 141 25
191 80 33 36 34 41 23 71 -16 42 -60 86 -100 99 -24 7 -5 8 73 4 69 -3 117
-11 140 -22z m279 9 c11 -11 23 -36 27 -57 9 -51 -1 -179 -20 -241 -20 -64
-107 -196 -120 -183 -6 6 -18 10 -27 10 -25 0 -13 37 14 44 12 3 28 15 36 27
l13 22 -28 -22 c-16 -12 -30 -19 -31 -14 -7 20 25 265 35 275 18 18 45 -57 39
-104 -3 -21 -2 -36 3 -33 16 10 18 72 2 129 l-15 59 31 28 c17 16 27 31 22 34
-5 3 -25 -9 -46 -27 l-36 -32 7 44 c4 25 13 48 19 52 20 14 56 8 75 -11z
m-1251 -38 c30 -19 63 -73 60 -98 -2 -12 -25 -33 -58 -52 -45 -28 -64 -33
-115 -33 -73 0 -133 26 -164 68 -20 29 -21 34 -7 59 23 46 50 63 112 72 72 10
141 4 172 -16z m723 12 c47 -6 74 -26 98 -73 10 -19 9 -27 -9 -51 -48 -69
-179 -93 -267 -49 -83 41 -91 76 -34 140 28 32 86 49 141 42 14 -1 46 -5 71
-9z m-387 -107 c20 -18 29 -41 41 -103 18 -95 33 -145 45 -145 5 0 8 6 6 13
-3 6 -7 25 -10 40 l-7 28 29 -15 c47 -24 157 -38 302 -39 219 0 292 26 323
116 l15 42 -5 -65 c-11 -151 -100 -540 -124 -540 -5 0 -9 -9 -9 -21 0 -11 -4
-17 -10 -14 -5 3 -10 -3 -10 -14 0 -29 -24 -17 -46 25 -10 19 -24 34 -31 34
-7 0 -17 8 -22 18 -6 9 -11 13 -11 9 0 -5 9 -20 20 -34 11 -14 20 -34 20 -44
0 -12 5 -16 15 -13 17 7 34 -44 18 -55 -5 -3 -15 -15 -21 -26 -10 -18 -11 -16
-12 15 0 19 -5 42 -11 50 -8 11 -9 7 -4 -17 4 -18 2 -40 -3 -49 -8 -14 -11 -9
-17 24 -4 23 -11 42 -17 42 -6 0 -7 -7 -2 -17 4 -10 9 -40 11 -68 l2 -50 -13
53 c-18 72 -23 73 -19 4 3 -37 1 -52 -5 -44 -7 10 -11 5 -17 -20 l-8 -33 -7
45 -7 45 -1 -46 c-2 -46 -9 -60 -50 -94 -16 -13 -21 -15 -18 -4 11 36 16 120
6 114 -5 -3 -10 -26 -10 -50 0 -25 -6 -50 -15 -59 -18 -18 -20 -30 -2 -20 9 5
9 4 1 -5 -21 -23 -139 -90 -142 -81 -2 5 4 23 13 40 9 18 14 35 10 38 -3 3 -8
-4 -12 -17 -4 -14 -11 -20 -20 -16 -12 4 -14 -2 -11 -30 2 -19 3 -35 2 -35 -1
0 -10 -3 -19 -6 -14 -6 -15 -2 -9 31 5 27 4 36 -5 31 -6 -4 -11 -23 -11 -42 0
-20 -5 -34 -12 -34 -7 0 -22 -3 -33 -6 -19 -5 -20 -1 -17 35 3 24 0 41 -6 41
-6 0 -12 -19 -14 -42 -3 -39 -6 -43 -31 -45 -22 -1 -27 2 -23 13 3 9 6 20 6
25 0 6 5 7 12 3 8 -5 10 9 5 54 -5 60 -4 62 18 62 13 0 26 3 28 8 3 4 -44 7
-103 7 -59 0 -103 -3 -97 -7 7 -4 20 -8 30 -8 11 0 17 -8 17 -25 0 -14 -4 -25
-10 -25 -5 0 -10 7 -10 16 0 8 -4 12 -10 9 -5 -3 -10 -26 -10 -51 0 -45 19
-55 21 -11 0 21 1 21 9 2 12 -28 12 -75 0 -75 -5 0 -10 6 -10 13 0 8 -3 7 -10
-3 -14 -23 -28 -1 -32 48 l-3 44 -22 -20 c-13 -11 -23 -29 -23 -41 0 -22 -7
-25 -34 -15 -10 4 -16 18 -16 40 0 40 19 46 21 7 1 -17 3 -21 6 -10 2 9 9 17
14 17 5 0 9 4 9 10 0 5 -17 12 -37 16 -21 4 -41 12 -45 18 -13 20 -9 -12 6
-49 l15 -35 -28 14 c-23 12 -27 20 -23 45 2 17 1 39 -4 48 -6 14 -9 7 -13 -24
l-6 -43 -49 32 c-27 18 -44 34 -37 36 6 2 11 10 11 18 0 9 -5 12 -11 8 -9 -5
-10 8 -7 45 3 28 2 51 -2 51 -7 0 -3 25 15 108 5 21 4 32 -4 32 -6 0 -11 -7
-11 -15 0 -8 -4 -15 -10 -15 -5 0 -10 -19 -10 -42 0 -24 -5 -50 -10 -58 -13
-20 -14 73 -1 98 18 33 31 100 24 118 -5 14 -10 6 -19 -31 l-13 -50 4 50 c2
28 8 73 14 100 6 28 12 59 14 69 2 21 53 63 63 53 4 -4 1 -15 -7 -24 -13 -16
-12 -17 4 -4 22 18 35 6 20 -18 -10 -16 -9 -20 7 -24 12 -3 17 0 14 8 -3 7 9
24 27 38 l32 25 -60 7 c-142 16 -196 -35 -205 -195 -3 -47 -2 -74 2 -60 5 20
8 15 15 -30 4 -30 9 -86 11 -125 2 -64 1 -68 -11 -45 -17 29 -20 84 -5 75 13
-8 13 25 0 45 -9 13 -10 13 -10 0 0 -13 -1 -13 -10 0 -7 12 -10 8 -10 -15 0
-20 -3 -26 -9 -17 -11 19 -24 -29 -14 -55 6 -16 5 -16 -10 -4 -9 7 -17 19 -17
26 0 8 -4 15 -10 17 -9 3 -18 36 -37 131 -3 18 0 32 9 40 23 18 30 47 13 47
-8 0 -15 -7 -15 -15 0 -8 -4 -15 -10 -15 -5 0 -10 8 -10 18 0 14 -2 15 -10 2
-14 -21 -13 -53 2 -44 8 5 9 -5 5 -34 -3 -23 -2 -40 3 -37 4 3 10 -5 14 -18
12 -45 6 -52 -19 -22 -20 23 -24 38 -21 64 5 30 4 32 -8 15 -13 -17 -15 -14
-36 31 -36 78 -102 389 -114 535 l-5 65 22 -55 c19 -47 29 -58 67 -77 121 -61
516 -46 579 21 12 12 31 53 44 92 24 76 45 94 109 94 24 0 46 -8 62 -22z
m-943 -409 c-6 -24 -9 -28 -10 -12 -1 24 9 56 16 50 2 -3 0 -20 -6 -38z m1757
-14 c0 -16 -2 -15 -8 5 -11 34 -11 60 0 35 5 -11 8 -29 8 -40z m-1701 39 c-3
-3 -12 -4 -19 -1 -8 3 -5 6 6 6 11 1 17 -2 13 -5z m1660 0 c-3 -3 -12 -4 -19
-1 -8 3 -5 6 6 6 11 1 17 -2 13 -5z m-1677 -76 c0 -19 -2 -20 -10 -8 -13 19
-13 30 0 30 6 0 10 -10 10 -22z m1683 2 c-3 -11 -7 -20 -9 -20 -2 0 -4 9 -4
20 0 11 4 20 9 20 5 0 7 -9 4 -20z m-1291 -62 c-11 -29 -24 -62 -28 -73 -7
-19 -8 -19 -12 4 -5 30 3 58 28 100 30 47 36 31 12 -31z m28 -27 c-10 -40 -30
-56 -30 -26 0 24 32 91 37 78 2 -6 -1 -30 -7 -52z m-36 -113 c-8 -54 -24 -73
-24 -29 0 30 15 71 25 71 3 0 2 -19 -1 -42z m13 -202 l-4 -81 18 40 c17 36 19
37 19 14 0 -15 3 -41 7 -59 l6 -33 -31 23 c-23 17 -31 31 -32 54 0 17 -1 40
-2 51 -1 11 0 43 1 70 2 44 3 47 12 26 5 -14 8 -61 6 -105z m-62 -6 c7 -31 6
-33 -9 -21 -9 7 -16 27 -16 44 0 39 15 25 25 -23z m540 -162 c-13 -91 -24
-100 -24 -20 -1 59 2 72 15 72 13 0 15 -8 9 -52z m-41 -50 c5 -29 4 -38 -7
-38 -17 0 -29 47 -20 80 7 28 17 12 27 -42z m-119 -36 c-8 -9 -25 20 -18 31 3
5 10 2 15 -7 6 -10 7 -20 3 -24z m120 -51 c115 0 150 3 195 20 73 27 84 27 88
6 7 -33 -8 -66 -45 -102 -111 -108 -411 -97 -497 18 -29 39 -42 87 -26 97 7 4
42 -3 78 -16 58 -20 85 -24 207 -23z"/>
<path d="M1189 1869 c-63 -9 -139 -52 -139 -78 0 -15 2 -15 70 14 81 34 160
34 242 -1 65 -27 95 -22 67 12 -33 40 -152 66 -240 53z"/>
<path d="M1262 1589 c-9 -14 -19 -18 -32 -14 -30 9 -26 -31 4 -50 45 -30 91
16 61 61 -19 29 -17 29 -33 3z"/>
<path d="M2020 1597 c0 -18 -24 -29 -45 -21 -22 9 -19 -22 5 -46 25 -25 32
-25 61 -1 20 16 22 23 14 47 -11 30 -35 45 -35 21z"/>
<path d="M1416 1208 c-20 -29 -20 -48 0 -77 14 -20 23 -23 61 -18 38 4 45 2
62 -22 12 -18 16 -32 10 -46 -13 -33 -10 -40 7 -19 15 18 15 17 10 -18 -2 -21
-1 -38 5 -38 5 0 9 9 9 19 0 33 11 51 31 51 15 0 19 -7 19 -35 0 -47 18 -45
23 3 3 32 5 34 12 15 10 -32 25 -29 26 5 0 24 1 25 10 7 8 -18 8 -17 6 7 -1
16 7 36 21 51 20 21 30 24 63 20 24 -4 45 -1 54 7 26 22 13 110 -17 110 -7 0
-7 -5 1 -14 7 -8 11 -30 9 -48 -3 -32 -4 -33 -50 -33 -40 0 -52 -5 -82 -34
-50 -49 -93 -48 -144 2 -35 34 -42 37 -78 31 -53 -8 -73 13 -56 59 15 38 9 46
-12 15z"/>
<path d="M1937 1094 c-9 -9 43 -74 59 -74 10 0 8 9 -7 35 -12 19 -18 35 -14
35 21 0 45 -25 62 -67 25 -57 40 -148 24 -138 -8 4 -8 -2 -1 -20 16 -42 12
-64 -6 -31 -9 15 -14 39 -11 52 2 14 0 27 -4 30 -8 5 -14 -38 -9 -61 1 -5 5
-28 7 -50 7 -46 -6 -42 -17 7 -7 28 -8 29 -9 8 -1 -14 5 -34 12 -45 16 -23 37
-103 37 -139 0 -31 15 -43 16 -13 0 12 4 38 8 57 5 23 4 30 -2 21 -12 -17 -18
-6 -26 53 -9 57 9 56 21 -2 7 -36 8 -36 14 23 3 33 2 80 -3 104 -9 43 -5 61
10 47 4 -4 7 -34 7 -66 0 -69 10 -58 19 22 9 69 -6 128 -40 165 l-26 28 20
-30 c24 -37 44 -96 36 -104 -4 -3 -9 0 -11 7 -3 7 -16 25 -29 39 -13 14 -26
41 -30 60 -5 24 -14 37 -31 44 -28 10 -67 12 -76 3z"/>
<path d="M1831 1079 c-53 -10 -63 -18 -33 -26 12 -3 22 -8 22 -12 0 -3 10 -17
21 -31 19 -23 19 -22 -1 13 -25 43 -20 59 10 32 18 -17 20 -17 14 -2 -11 29
14 19 33 -13 26 -45 45 -40 29 8 -14 41 -26 45 -95 31z"/>
<path d="M1392 1040 c-22 -44 -12 -55 14 -15 20 31 38 33 29 3 -6 -20 -3 -19
18 7 29 35 26 45 -13 45 -23 0 -32 -7 -48 -40z"/>
<path d="M1478 1033 c-22 -46 -16 -55 8 -14 21 36 39 41 28 9 -15 -49 -14 -52
4 -13 11 22 17 43 15 48 -11 19 -40 3 -55 -30z"/>
<path d="M1735 1060 c-8 -12 13 -80 24 -80 5 0 5 18 1 40 -5 26 -3 41 4 44 6
2 3 5 -6 5 -9 1 -20 -4 -23 -9z"/>
<path d="M1780 1025 c0 -5 5 -17 10 -25 5 -8 10 -10 10 -5 0 6 -5 17 -10 25
-5 8 -10 11 -10 5z"/>
<path d="M1262 998 c-16 -16 -15 -38 2 -38 12 0 114 -171 124 -206 2 -6 -4
-17 -13 -24 -21 -17 -19 -63 3 -83 25 -23 32 -13 19 23 -19 51 4 56 50 12 75
-71 225 -88 329 -37 65 32 89 62 164 208 30 59 61 107 68 107 19 0 14 28 -8
40 -15 8 -25 7 -43 -5 -13 -8 -70 -22 -128 -31 -167 -26 -482 -5 -522 35 -14
14 -30 14 -45 -1z m129 -58 c164 -30 342 -30 497 1 30 6 56 9 58 6 14 -14 -26
-49 -71 -62 -79 -24 -255 -36 -364 -25 -101 11 -156 31 -179 68 -17 25 -15 26
59 12z m266 -233 c67 1 132 4 145 9 21 6 22 6 8 -11 -60 -73 -279 -73 -339 -1
-14 16 -12 17 25 10 21 -5 94 -8 161 -7z"/>
<path d="M1602 990 c0 -14 2 -19 5 -12 2 6 2 18 0 25 -3 6 -5 1 -5 -13z"/>
<path d="M950 915 c0 -8 4 -15 9 -15 5 0 11 7 15 15 3 9 0 15 -9 15 -8 0 -15
-7 -15 -15z"/>
<path d="M2234 899 c14 -17 26 -38 27 -47 0 -11 2 -12 6 -5 6 15 -34 83 -49
83 -5 0 2 -14 16 -31z"/>
<path d="M2267 910 c3 -10 11 -24 18 -30 11 -10 12 -6 2 19 -13 34 -28 43 -20
11z"/>
<path d="M1090 900 c0 -6 4 -9 9 -5 5 3 12 -7 14 -22 l5 -28 -2 29 c-1 27 -26
52 -26 26z"/>
<path d="M1062 868 c-1 -20 -6 -40 -12 -43 -5 -3 -10 -11 -10 -16 0 -6 5 -7
10 -4 6 4 10 -12 10 -40 0 -25 4 -44 9 -41 5 4 11 3 14 -1 2 -5 2 -1 -1 7 -3
8 -8 51 -12 95 -4 44 -8 63 -8 43z"/>
<path d="M2141 871 c-9 -6 -10 -11 -2 -15 6 -4 11 -4 11 0 0 4 9 -1 21 -12 21
-19 21 -19 8 9 -13 29 -17 31 -38 18z"/>
<path d="M2131 825 c1 -19 18 -51 18 -35 0 8 -4 22 -9 30 -5 8 -9 11 -9 5z"/>
<path d="M1104 812 c-15 -10 -25 -42 -14 -42 6 0 10 6 10 14 0 8 6 16 13 19 6
2 10 7 7 10 -3 3 -10 3 -16 -1z"/>
<path d="M1996 748 c8 -27 12 -33 19 -27 7 8 -7 49 -17 49 -5 0 -6 -10 -2 -22z"/>
<path d="M1270 721 c0 -5 -3 -18 -7 -28 -6 -17 -6 -17 10 -1 19 18 22 38 7 38
-5 0 -10 -4 -10 -9z"/>
<path d="M1979 705 c-3 -5 -2 -39 1 -75 4 -36 8 -56 9 -45 1 17 3 18 12 5 8
-12 9 -9 4 10 -4 14 -10 45 -14 70 -3 25 -9 41 -12 35z"/>
<path d="M1276 629 c-7 -35 4 -100 15 -93 5 3 6 22 3 43 -3 21 -1 47 4 58 8
15 8 20 -3 20 -7 0 -16 -13 -19 -28z"/>
<path d="M1952 600 c0 -19 2 -27 5 -17 2 9 2 25 0 35 -3 9 -5 1 -5 -18z"/>
<path d="M1307 601 c-3 -12 -1 -21 3 -21 5 0 11 -19 13 -42 l4 -43 1 50 c2 56
-11 91 -21 56z"/>
<path d="M1913 524 c-10 -44 -10 -45 11 -29 11 9 29 18 39 22 9 3 17 15 16 27
0 11 -3 15 -6 9 -6 -17 -18 -16 -36 1 -12 12 -15 8 -24 -30z"/>
<path d="M1782 470 c0 -14 2 -19 5 -12 2 6 2 18 0 25 -3 6 -5 1 -5 -13z"/>
</g>
</svg>
